<svg width="306" height="45" viewBox="0 0 306 45" fill="none" xmlns="http://www.w3.org/2000/svg">
<g id="logo">
<path id="Vector 2" d="M225 35.9854C245.998 52.8712 257.164 -7.28446 271.163 5.90758C266.163 32.8194 281.495 34.4024 260.83 35.9855" stroke="#07C480" stroke-width="8"/>
<path id="WORKFLOW" d="M18.5625 21H21.1875L28.5 37.125L35.625 21H38.25L30 39H27L19.875 23.25L12.75 39H9.75L0.75 21H3.375L11.25 37.125L18.5625 21ZM55.5117 20.625C56.8867 20.625 58.043 20.7109 58.9805 20.8828C59.9258 21.0469 60.7031 21.3008 61.3125 21.6445C61.9219 21.9805 62.3906 22.4062 62.7188 22.9219C63.0469 23.4375 63.2852 24.043 63.4336 24.7383C63.5898 25.4336 63.6797 26.2188 63.7031 27.0938C63.7344 27.9688 63.75 28.9375 63.75 30C63.75 31.0625 63.7344 32.0312 63.7031 32.9062C63.6797 33.7812 63.5898 34.5664 63.4336 35.2617C63.2852 35.957 63.0469 36.5625 62.7188 37.0781C62.3906 37.5938 61.9219 38.0234 61.3125 38.3672C60.7031 38.7031 59.9258 38.9531 58.9805 39.1172C58.043 39.2891 56.8867 39.375 55.5117 39.375H48.7383C47.3633 39.375 46.2031 39.2891 45.2578 39.1172C44.3203 38.9531 43.5469 38.7031 42.9375 38.3672C42.3281 38.0234 41.8555 37.5938 41.5195 37.0781C41.1914 36.5625 40.9492 35.957 40.793 35.2617C40.6445 34.5664 40.5586 33.7812 40.5352 32.9062C40.5117 32.0312 40.5 31.0625 40.5 30C40.5 28.9375 40.5117 27.9688 40.5352 27.0938C40.5586 26.2188 40.6445 25.4336 40.793 24.7383C40.9492 24.043 41.1914 23.4375 41.5195 22.9219C41.8555 22.4062 42.3281 21.9805 42.9375 21.6445C43.5469 21.3008 44.3203 21.0469 45.2578 20.8828C46.2031 20.7109 47.3633 20.625 48.7383 20.625H55.5117ZM55.5117 37.5C56.5039 37.5 57.3398 37.4727 58.0195 37.418C58.707 37.3555 59.2734 37.2344 59.7188 37.0547C60.1641 36.875 60.5078 36.6172 60.75 36.2812C60.9922 35.9453 61.168 35.5 61.2773 34.9453C61.3867 34.3906 61.4492 33.7109 61.4648 32.9062C61.4883 32.0938 61.5 31.125 61.5 30C61.5 28.875 61.4883 27.9102 61.4648 27.1055C61.4492 26.293 61.3867 25.6094 61.2773 25.0547C61.168 24.5 60.9922 24.0547 60.75 23.7188C60.5078 23.3828 60.1641 23.125 59.7188 22.9453C59.2812 22.7656 58.7188 22.6484 58.0312 22.5938C57.3516 22.5312 56.5117 22.5 55.5117 22.5H48.7383C47.7383 22.5 46.8945 22.5312 46.207 22.5938C45.5273 22.6484 44.9648 22.7656 44.5195 22.9453C44.0742 23.125 43.7305 23.3828 43.4883 23.7188C43.2461 24.0547 43.0703 24.5 42.9609 25.0547C42.8516 25.6094 42.7891 26.293 42.7734 27.1055C42.7578 27.9102 42.75 28.875 42.75 30C42.75 31.125 42.7578 32.0938 42.7734 32.9062C42.7969 33.7109 42.8633 34.3906 42.9727 34.9453C43.082 35.5 43.2539 35.9453 43.4883 36.2812C43.7305 36.6172 44.0742 36.875 44.5195 37.0547C44.9648 37.2344 45.5273 37.3555 46.207 37.418C46.8945 37.4727 47.7383 37.5 48.7383 37.5H55.5117ZM88.125 39H85.875V35.625C85.875 35.0781 85.8633 34.6094 85.8398 34.2188C85.8242 33.8203 85.7578 33.4805 85.6406 33.1992C85.5312 32.918 85.3555 32.6914 85.1133 32.5195C84.8711 32.3477 84.5273 32.2148 84.082 32.1211C83.6367 32.0273 83.0703 31.9648 82.3828 31.9336C81.7031 31.8945 80.8633 31.875 79.8633 31.875H69.75V39H67.5V21H80.2383C81.6133 21 82.7695 21.0508 83.707 21.1523C84.6523 21.2461 85.4297 21.3906 86.0391 21.5859C86.6562 21.7812 87.1289 22.0234 87.457 22.3125C87.793 22.6016 88.0352 22.9414 88.1836 23.332C88.3398 23.7227 88.4297 24.1602 88.4531 24.6445C88.4844 25.1289 88.5 25.6641 88.5 26.25C88.5 27 88.4453 27.6602 88.3359 28.2305C88.2344 28.793 88.0586 29.2734 87.8086 29.6719C87.5586 30.0703 87.2266 30.3906 86.8125 30.6328C86.3984 30.8672 85.8789 31.0312 85.2539 31.125C85.8789 31.2188 86.3789 31.3828 86.7539 31.6172C87.1289 31.8516 87.418 32.1562 87.6211 32.5312C87.8242 32.9062 87.957 33.3516 88.0195 33.8672C88.0898 34.3828 88.125 34.9688 88.125 35.625V39ZM69.75 30H80.2383C81.2383 30 82.0781 29.9844 82.7578 29.9531C83.4453 29.9141 84.0117 29.8477 84.457 29.7539C84.9023 29.6602 85.2461 29.5273 85.4883 29.3555C85.7305 29.1836 85.9062 28.957 86.0156 28.6758C86.1328 28.3945 86.1992 28.0586 86.2148 27.668C86.2383 27.2695 86.25 26.7969 86.25 26.25C86.25 25.7422 86.2383 25.3047 86.2148 24.9375C86.1992 24.5703 86.1328 24.2617 86.0156 24.0117C85.9062 23.7617 85.7305 23.5625 85.4883 23.4141C85.2461 23.2656 84.9023 23.1523 84.457 23.0742C84.0117 22.9883 83.4453 22.9336 82.7578 22.9102C82.0781 22.8867 81.2383 22.875 80.2383 22.875H69.75V30ZM109.125 21H112.5L99.75 29.8125L112.875 39H109.5L97.5 30.75H94.5V39H92.25V21H94.5V28.875H97.5L109.125 21ZM115.875 39V21H133.125V22.875H118.125V28.875H132.375V30.75H118.125V39H115.875ZM136.125 39V21H138.375V37.125H152.625V39H136.125ZM169.887 20.625C171.262 20.625 172.418 20.7109 173.355 20.8828C174.301 21.0469 175.078 21.3008 175.688 21.6445C176.297 21.9805 176.766 22.4062 177.094 22.9219C177.422 23.4375 177.66 24.043 177.809 24.7383C177.965 25.4336 178.055 26.2188 178.078 27.0938C178.109 27.9688 178.125 28.9375 178.125 30C178.125 31.0625 178.109 32.0312 178.078 32.9062C178.055 33.7812 177.965 34.5664 177.809 35.2617C177.66 35.957 177.422 36.5625 177.094 37.0781C176.766 37.5938 176.297 38.0234 175.688 38.3672C175.078 38.7031 174.301 38.9531 173.355 39.1172C172.418 39.2891 171.262 39.375 169.887 39.375H163.113C161.738 39.375 160.578 39.2891 159.633 39.1172C158.695 38.9531 157.922 38.7031 157.312 38.3672C156.703 38.0234 156.23 37.5938 155.895 37.0781C155.566 36.5625 155.324 35.957 155.168 35.2617C155.02 34.5664 154.934 33.7812 154.91 32.9062C154.887 32.0312 154.875 31.0625 154.875 30C154.875 28.9375 154.887 27.9688 154.91 27.0938C154.934 26.2188 155.02 25.4336 155.168 24.7383C155.324 24.043 155.566 23.4375 155.895 22.9219C156.23 22.4062 156.703 21.9805 157.312 21.6445C157.922 21.3008 158.695 21.0469 159.633 20.8828C160.578 20.7109 161.738 20.625 163.113 20.625H169.887ZM169.887 37.5C170.879 37.5 171.715 37.4727 172.395 37.418C173.082 37.3555 173.648 37.2344 174.094 37.0547C174.539 36.875 174.883 36.6172 175.125 36.2812C175.367 35.9453 175.543 35.5 175.652 34.9453C175.762 34.3906 175.824 33.7109 175.84 32.9062C175.863 32.0938 175.875 31.125 175.875 30C175.875 28.875 175.863 27.9102 175.84 27.1055C175.824 26.293 175.762 25.6094 175.652 25.0547C175.543 24.5 175.367 24.0547 175.125 23.7188C174.883 23.3828 174.539 23.125 174.094 22.9453C173.656 22.7656 173.094 22.6484 172.406 22.5938C171.727 22.5312 170.887 22.5 169.887 22.5H163.113C162.113 22.5 161.27 22.5312 160.582 22.5938C159.902 22.6484 159.34 22.7656 158.895 22.9453C158.449 23.125 158.105 23.3828 157.863 23.7188C157.621 24.0547 157.445 24.5 157.336 25.0547C157.227 25.6094 157.164 26.293 157.148 27.1055C157.133 27.9102 157.125 28.875 157.125 30C157.125 31.125 157.133 32.0938 157.148 32.9062C157.172 33.7109 157.238 34.3906 157.348 34.9453C157.457 35.5 157.629 35.9453 157.863 36.2812C158.105 36.6172 158.449 36.875 158.895 37.0547C159.34 37.2344 159.902 37.3555 160.582 37.418C161.27 37.4727 162.113 37.5 163.113 37.5H169.887ZM198.188 21H200.812L208.125 37.125L215.25 21H217.875L209.625 39H206.625L199.5 23.25L192.375 39H189.375L180.375 21H183L190.875 37.125L198.188 21Z" fill="url(#paint0_linear_11_48)"/>
</g>
<defs>
<linearGradient id="paint0_linear_11_48" x1="0" y1="28" x2="306" y2="28" gradientUnits="userSpaceOnUse">
<stop offset="0.441176" stop-color="#FEFEFE"/>
<stop offset="1" stop-color="#1E1E1E"/>
</linearGradient>
</defs>
</svg>
